<svg xmlns="http://www.w3.org/2000/svg" viewBox="0 0 1600 1000" role="img" aria-labelledby="title desc">
<title id="title">Abstract web development workspace</title><desc id="desc">A dark blue technology workspace with a laptop interface, code panels and cyan light.</desc>
<defs><linearGradient id="bg" x1="0" y1="0" x2="1" y2="1"><stop stop-color="#061326"/><stop offset=".55" stop-color="#0b2444"/><stop offset="1" stop-color="#123f69"/></linearGradient><linearGradient id="screen" x1="0" y1="0" x2="1" y2="1"><stop stop-color="#0e335d"/><stop offset="1" stop-color="#061326"/></linearGradient><filter id="glow"><feGaussianBlur stdDeviation="18"/></filter></defs>
<rect width="1600" height="1000" fill="url(#bg)"/><circle cx="1260" cy="215" r="185" fill="#21d4fd" opacity=".12" filter="url(#glow)"/><circle cx="1200" cy="630" r="270" fill="#2786f5" opacity=".1" filter="url(#glow)"/>
<g opacity=".22" stroke="#21d4fd"><path d="M1040 0v1000M1180 0v1000M1320 0v1000M1460 0v1000"/><path d="M900 140h700M900 280h700M900 420h700M900 560h700M900 700h700M900 840h700"/></g>
<g transform="translate(790 175) rotate(-6)"><rect x="0" y="0" width="680" height="470" rx="18" fill="#09182e" stroke="#67dcff" stroke-opacity=".32" stroke-width="4"/><rect x="28" y="28" width="624" height="390" rx="8" fill="url(#screen)"/><circle cx="48" cy="20" r="5" fill="#21d4fd"/><circle cx="66" cy="20" r="5" fill="#2786f5"/><g fill="#21d4fd" opacity=".75"><rect x="72" y="92" width="130" height="9" rx="4"/><rect x="72" y="128" width="240" height="9" rx="4"/><rect x="72" y="164" width="190" height="9" rx="4"/><rect x="72" y="200" width="292" height="9" rx="4"/><rect x="72" y="236" width="146" height="9" rx="4"/></g><g fill="#fff" opacity=".28"><rect x="390" y="92" width="180" height="110" rx="8"/><rect x="390" y="220" width="180" height="75" rx="8"/></g></g><path d="M700 688h860l-90 62H790z" fill="#09182e" stroke="#67dcff" stroke-opacity=".3" stroke-width="3"/><path d="M980 750h300l28 26H950z" fill="#21d4fd" opacity=".55"/>
<text x="80" y="885" fill="#fff" opacity=".1" font-family="Arial" font-size="28" letter-spacing="9">BUILD / LAUNCH / GROW</text></svg>